<svg xmlns="http://www.w3.org/2000/svg" viewBox="0 0 25 25"><defs><style>.cls-1,.cls-2,.cls-3{fill:none;}.cls-2,.cls-3,.cls-4{stroke:#b3b3b3;stroke-miterlimit:10;}.cls-3{stroke-linecap:round;}.cls-4{fill:#fff;}.cls-5{fill:#b3b3b3;}</style></defs><title>setting</title><g id="Layer_2" data-name="Layer 2"><g id="Layer_5" data-name="Layer 5"><rect class="cls-1" width="25" height="25"/><rect class="cls-2" x="5.5" y="9.5" width="10" height="10"/><polyline class="cls-3" points="11.5 17.5 7.5 17.5 7.5 13.5"/><rect class="cls-4" x="10.5" y="4.5" width="10" height="10"/><path class="cls-5" d="M16.58,12l-.5-1c-.21-.39-.34-.68-.49-1h0c-.12.32-.26.61-.43,1l-.46,1H13.4l1.45-2.53L13.45,7h1.27l.5,1.05c.17.35.3.63.43.95h0c.14-.37.25-.62.39-.95L16.55,7H17.8L16.39,9.44,17.87,12Z"/><line class="cls-2" x1="10.71" y1="14.02" x2="7.57" y2="17.16"/></g></g></svg>