<svg xmlns="http://www.w3.org/2000/svg" viewBox="0 0 24 24"><defs><style>.cls-1{fill:#999;}.cls-2{fill:none;}</style></defs><title>Check_hover</title><g id="Layer_2" data-name="Layer 2"><g id="Layer_5" data-name="Layer 5"><path class="cls-1" d="M20,11.25a7.69,7.69,0,0,1-2.34,5.65A7.7,7.7,0,0,1,12,19.25,7.7,7.7,0,0,1,6.34,16.9,7.69,7.69,0,0,1,4,11.25,7.72,7.72,0,0,1,6.34,5.59,7.73,7.73,0,0,1,12,3.25a7.73,7.73,0,0,1,5.66,2.34A7.72,7.72,0,0,1,20,11.25Zm-1,0a6.75,6.75,0,0,0-2.05-5,6.74,6.74,0,0,0-4.95-2,6.74,6.74,0,0,0-4.95,2,6.75,6.75,0,0,0-2,5,6.8,6.8,0,0,0,2.05,5,6.72,6.72,0,0,0,5,2.06A6.72,6.72,0,0,0,17,16.22,6.8,6.8,0,0,0,19,11.25ZM15.89,8.33a.44.44,0,0,1,0,.7l-5,5a.13.13,0,0,0,0,.09.46.46,0,0,1-.72,0l-2.47-2.5a.42.42,0,0,1,0-.69.46.46,0,0,1,.71,0L10.5,13l4.69-4.72A.44.44,0,0,1,15.89,8.33Z"/><rect class="cls-2" width="24" height="24"/></g></g></svg>