<svg xmlns="http://www.w3.org/2000/svg" viewBox="0 0 24 24"><defs><style>.cls-1{fill:#0071bc;}.cls-2{fill:none;}</style></defs><title>Cross_active</title><g id="Layer_2" data-name="Layer 2"><g id="Layer_5" data-name="Layer 5"><path class="cls-1" d="M20,11.25a7.69,7.69,0,0,1-2.34,5.65A7.7,7.7,0,0,1,12,19.25,7.7,7.7,0,0,1,6.34,16.9,7.69,7.69,0,0,1,4,11.25,7.72,7.72,0,0,1,6.34,5.59,7.73,7.73,0,0,1,12,3.25a7.73,7.73,0,0,1,5.66,2.34A7.72,7.72,0,0,1,20,11.25Zm-1,0a6.75,6.75,0,0,0-2.05-5,6.74,6.74,0,0,0-4.95-2,6.74,6.74,0,0,0-4.95,2,6.75,6.75,0,0,0-2,5,6.8,6.8,0,0,0,2.05,5,6.72,6.72,0,0,0,5,2.06A6.72,6.72,0,0,0,17,16.22,6.8,6.8,0,0,0,19,11.25ZM14.84,9.12l-2.12,2.13,2.12,2.12a.45.45,0,0,1,0,.71.44.44,0,0,1-.7,0L12,12,9.88,14.09a.51.51,0,0,1-.72-.72l2.12-2.12L9.16,9.12a.44.44,0,0,1,0-.7.45.45,0,0,1,.71,0L12,10.53,14.13,8.4a.44.44,0,0,1,.7,0A.44.44,0,0,1,14.84,9.12Z"/><rect class="cls-2" width="24" height="24"/></g></g></svg>