<svg xmlns="http://www.w3.org/2000/svg" xmlns:xlink="http://www.w3.org/1999/xlink" viewBox="0 0 91.52 63.15"><defs><style>.cls-1{fill:#3fa9f5;}.cls-2{fill:#054a77;}</style><symbol id="New_Symbol_6" data-name="New Symbol 6" viewBox="0 0 111.08 57.86"><path class="cls-1" d="M4.57,57.38H.08V33.15H4.57Z"/><path class="cls-1" d="M32.47,49.34l0,.1a7.25,7.25,0,0,1-2.65,6,11,11,0,0,1-7.38,2.31,10.53,10.53,0,0,1-7.65-2.86,9.69,9.69,0,0,1-3-7.3V43a9.79,9.79,0,0,1,2.91-7.29,10.28,10.28,0,0,1,7.56-2.87,11.5,11.5,0,0,1,7.51,2.25,7.26,7.26,0,0,1,2.67,6.07l0,.1H28.14a4.94,4.94,0,0,0-1.46-3.81A6.17,6.17,0,0,0,22.34,36,5.37,5.37,0,0,0,18,38a7.48,7.48,0,0,0-1.62,4.92v4.64a7.44,7.44,0,0,0,1.65,5,5.54,5.54,0,0,0,4.46,2,6,6,0,0,0,4.23-1.34,5,5,0,0,0,1.44-3.8Z"/><path class="cls-1" d="M54.2,51.13A3,3,0,0,0,53,48.67a12.23,12.23,0,0,0-4.41-1.73,19.66,19.66,0,0,1-6.93-2.82,5.42,5.42,0,0,1-2.43-4.6,5.73,5.73,0,0,1,2.69-4.83A11.77,11.77,0,0,1,48.8,32.8,11.07,11.07,0,0,1,55.92,35a6.17,6.17,0,0,1,2.6,5.17l0,.1h-4.3a3.72,3.72,0,0,0-1.41-3,6.13,6.13,0,0,0-4-1.16A6.36,6.36,0,0,0,45,37a3,3,0,0,0-1.32,2.5,2.69,2.69,0,0,0,1.43,2.29,16.69,16.69,0,0,0,4.74,1.72,16.54,16.54,0,0,1,6.59,2.9,5.83,5.83,0,0,1,2.26,4.71A5.54,5.54,0,0,1,56,55.94a12.58,12.58,0,0,1-7.07,1.79,13.48,13.48,0,0,1-7.39-2,6,6,0,0,1-3.08-5.51l0-.1h4.32a3.67,3.67,0,0,0,1.7,3.3,8,8,0,0,0,4.41,1.09,7.07,7.07,0,0,0,3.88-.9A2.78,2.78,0,0,0,54.2,51.13Z"/><path class="cls-2" d="M14.64,13.33H4V21h12.3v3.25H0V0H16.22V3.25H4v6.83h10.6Z"/><path class="cls-2" d="M27.83,17.89l.43,1.68h.1l.42-1.65L34.57,0h4.31L30.23,24.23H26.38L17.74,0h4.31Z"/><path class="cls-2" d="M51.91,18.57H42.43L40.5,24.23H36.41L45.31,0h3.83l8.8,24.23H53.83Zm-8.32-3.38h7.18L47.26,4.84h-.1Z"/><path class="cls-1" d="M78.49,1.94a6,6,0,0,0,0,8.43A6,6,0,0,0,88.67,6.16a6,6,0,0,0-6-6A5.91,5.91,0,0,0,78.49,1.94Z"/><path class="cls-1" d="M78.07,47.32a6,6,0,1,0,4.21-1.74A5.93,5.93,0,0,0,78.07,47.32Z"/><path class="cls-1" d="M100.91,24.73A6,6,0,1,0,105.12,23,5.93,5.93,0,0,0,100.91,24.73Z"/><path class="cls-1" d="M71.45,11.6a5.54,5.54,0,0,1,1,.11l.29.08a6.37,6.37,0,0,1,.66.21l0,0,.32.13a5.81,5.81,0,0,1,.68.37l.18.11,1,.85c.07.07.13.16.19.23l.13.16c0,.05.09.1.13.16a1,1,0,0,1,.13.16l0,.05.05,0a8.79,8.79,0,0,0,12.43.17l.2-.21.07-.09s0,0,0,0l.12-.14a6,6,0,0,1,.38-.47l1-.87.09-.05.14-.08a5,5,0,0,1,.66-.36,3.84,3.84,0,0,1,.36-.14,5.25,5.25,0,0,1,.67-.22l.12,0,.23-.06a6.58,6.58,0,0,1,1.08-.11,6,6,0,0,1,0,11.93,5.74,5.74,0,0,1-1.09-.12l-.27-.06h0a7.31,7.31,0,0,1-.7-.22,2.55,2.55,0,0,1-.35-.14c-.19-.09-.4-.2-.67-.36l-.22-.13-1-.84-.2-.25-.12-.15-.12-.15a0,0,0,0,1,0,0v0l-.19-.2a8.79,8.79,0,0,0-12.43-.17l-.21.21,0,0,0,0,0,.05-.12.13-.06.08c-.11.15-.22.28-.32.4l-1,.88-.21.12a5.37,5.37,0,0,1-.66.36l-.35.14a4.78,4.78,0,0,1-.7.22,2.25,2.25,0,0,1-.24.08c-.43.07-.92.11-.92.11h0V11.61Z"/><path class="cls-1" d="M72.38,34.48l.33.08a6.22,6.22,0,0,1,.69.21l.36.14c.2.1.42.22.68.38l.1.06.1,0,1,.85a2.11,2.11,0,0,1,.19.23l.13.16s.09.1.13.16l.13.15,0,.06,0,.05a8.8,8.8,0,0,0,12.44.17l.2-.21L89,37l0,0,0,0,.11-.13,0-.07.34-.42,1-.86.09,0,.14-.08a5,5,0,0,1,.67-.37l.35-.14a5.63,5.63,0,0,1,.69-.21h0l.29-.07a6.27,6.27,0,0,1,1.08-.11,6,6,0,1,1,0,11.92,4.74,4.74,0,0,1-1.07-.11l-.3-.06h0c-.25-.07-.48-.14-.7-.22l-.35-.14a6.51,6.51,0,0,1-.69-.38l-.18-.1v0h0l-1-.82a2.65,2.65,0,0,1-.21-.26L89.23,44l-.12-.14a2.09,2.09,0,0,1-.14-.17l0-.06,0,0a8.8,8.8,0,0,0-12.43-.18l-.21.22,0,0,0,0,0,.05-.11.13,0,0-.35.44-1,.88-.07,0-.14.08a6.11,6.11,0,0,1-.65.36l-.35.14a4.65,4.65,0,0,1-.7.21l-.33.08c-.31.06-.84.09-.84.1V34.38S72.06,34.42,72.38,34.48Z"/><rect class="cls-2" x="69.54" y="0.86" width="2" height="57"/><path class="cls-2" d="M75.6,36.11a6.09,6.09,0,0,1,0,8.44,7,7,0,0,1-4.08,1.74V34.37A7,7,0,0,1,75.6,36.11Z"/><path class="cls-2" d="M77.55,25.84l.2-.21,0,0,0-.05,0,0a.91.91,0,0,0,.1-.13l.05-.06a5.19,5.19,0,0,1,.35-.42l1-.87.08-.05.14-.08c.24-.15.46-.26.66-.36l.35-.14c.21-.08.45-.15.7-.22l.34-.07A5.39,5.39,0,0,1,82.7,23a5.91,5.91,0,0,1,4.22,1.75,6.27,6.27,0,0,1,1.75,4.37,6.66,6.66,0,0,1-1.75,4.37h0a8.73,8.73,0,0,1-4.22,1.59,6.35,6.35,0,0,1-1.06-.18c-.12,0-.24-.09-.35-.12s-.47-.16-.71-.24l-.34-.15a6.66,6.66,0,0,1-.67-.37l-.2-.12-1-.83,0,0a1.93,1.93,0,0,1-.17-.21l-.13-.16-.15-.17-.12-.16,0,0-.05.07a8.44,8.44,0,0,0-6.17-2.53h0V28.32A9.2,9.2,0,0,0,77.55,25.84Z"/><path class="cls-2" d="M75.54,13.35a6,6,0,0,1,0,8.43,7,7,0,0,1-4,1.73V11.61A7,7,0,0,1,75.54,13.35Z"/></symbol></defs><title>Logo</title><g id="Layer_2" data-name="Layer 2"><g id="Layer_5" data-name="Layer 5"><path class="cls-2" d="M3.8,55.85a3.6,3.6,0,0,1,1,.15,2.73,2.73,0,0,1,.82.35,5.22,5.22,0,0,1,.57.41,2.29,2.29,0,0,1,.35.34l.11.15-1,1-.08-.11a1.49,1.49,0,0,0-.23-.24,2.88,2.88,0,0,0-.39-.3,2.2,2.2,0,0,0-.55-.24,2.38,2.38,0,0,0-.7-.11,2.3,2.3,0,1,0,0,4.6,2.53,2.53,0,0,0,1.31-.35c.16-.1.29-.2.41-.29a1.9,1.9,0,0,0,.25-.26l.08-.1.9,1a.92.92,0,0,1-.12.16,4.4,4.4,0,0,1-.35.33,4.94,4.94,0,0,1-.59.43,4,4,0,0,1-.83.33,3.72,3.72,0,0,1-1.06.15,3.7,3.7,0,0,1-2.7-1.07,3.58,3.58,0,0,1,0-5.16A3.74,3.74,0,0,1,3.8,55.85Z"/><path class="cls-2" d="M12.7,63H8V56h1.5v5.65H12.7Z"/><path class="cls-2" d="M14.15,62.08a3.58,3.58,0,0,1,0-5.16,3.94,3.94,0,0,1,5.4,0,3.58,3.58,0,0,1,0,5.16,3.72,3.72,0,0,1-2.7,1.07A3.69,3.69,0,0,1,14.15,62.08Zm1.1-4.21a2.26,2.26,0,0,0-.65,1.63,2.28,2.28,0,0,0,.65,1.64,2.17,2.17,0,0,0,1.6.66,2.15,2.15,0,0,0,1.59-.66,2.25,2.25,0,0,0,.66-1.64,2.23,2.23,0,0,0-.66-1.63,2.12,2.12,0,0,0-1.59-.67A2.14,2.14,0,0,0,15.25,57.87Z"/><path class="cls-2" d="M24,61.32a1.5,1.5,0,0,0,2.19,0,1.62,1.62,0,0,0,.46-1.18V56h1.5v4.15a2.89,2.89,0,0,1-.87,2.14,3.19,3.19,0,0,1-4.36,0A2.89,2.89,0,0,1,22,60.15V56h1.5v4.15A1.61,1.61,0,0,0,24,61.32Z"/><path class="cls-2" d="M29.84,56h2.61A3.51,3.51,0,0,1,35,57a3.32,3.32,0,0,1,1,2.48A3.36,3.36,0,0,1,35,62a3.55,3.55,0,0,1-2.56,1H29.84Zm2.61,1.35h-1.1v4.3h1.1A2,2,0,0,0,33.93,61,2.21,2.21,0,0,0,34,58,2,2,0,0,0,32.45,57.35Z"/><path class="cls-2" d="M43.24,59.05l2.42-3H47v7h-1.5V58.33L43.24,61.2,41,58.35V63h-1.5V56h1.35Z"/><path class="cls-2" d="M52.89,61.35h-2.7L49.58,63H48l2.76-7h1.59l2.76,7h-1.6Zm-.5-1.3-.85-2.3-.86,2.3Z"/><path class="cls-2" d="M60.83,56h1.5v7H61l-3.45-4.45V63H56.08V56h1.31l3.44,4.45Z"/><path class="cls-2" d="M68.23,61.35h-2.7L64.93,63h-1.6l2.75-7h1.6l2.75,7h-1.6Zm-.5-1.3-.85-2.3L66,60.05Z"/><path class="cls-2" d="M74.73,59.2h2.75v2.6l-.12.15-.38.32a3.7,3.7,0,0,1-.62.41,3.77,3.77,0,0,1-.85.33,4.26,4.26,0,0,1-1.08.14,3.7,3.7,0,0,1-2.7-1.07,3.58,3.58,0,0,1,0-5.16,3.74,3.74,0,0,1,2.7-1.07,3.6,3.6,0,0,1,1,.15,2.73,2.73,0,0,1,.82.35,5.22,5.22,0,0,1,.57.41,2.29,2.29,0,0,1,.35.34l.11.15-1,1-.08-.11a1.49,1.49,0,0,0-.23-.24,2.88,2.88,0,0,0-.39-.3,2.2,2.2,0,0,0-.55-.24,2.38,2.38,0,0,0-.7-.11,2.3,2.3,0,1,0,0,4.6,2.58,2.58,0,0,0,.86-.14,1.56,1.56,0,0,0,.54-.28l.15-.13v-1H74.73Z"/><path class="cls-2" d="M80.63,61.65h3.75V63H79.13V56h5.15v1.35H80.63v1.4h2.85V60.1H80.63Z"/><path class="cls-2" d="M85.77,63V56h3.1a2.32,2.32,0,0,1,1.72.67,2.17,2.17,0,0,1,.68,1.63,2.3,2.3,0,0,1-.13.79,2.17,2.17,0,0,1-.31.59,2.66,2.66,0,0,1-.36.38,1.41,1.41,0,0,1-.32.22l-.13.07L91.52,63h-1.6l-1.35-2.45H87.28V63Zm4-4.7a.9.9,0,0,0-.28-.68.91.91,0,0,0-.68-.27H87.28V59.2h1.54a.9.9,0,0,0,.68-.26A.83.83,0,0,0,89.78,58.3Z"/><use width="111.08" height="57.86" transform="translate(1.69) scale(0.75 0.74)" xlink:href="#New_Symbol_6"/></g></g></svg>