<svg xmlns="http://www.w3.org/2000/svg" viewBox="0 0 24 24"><defs><style>.cls-1{fill:#999;}.cls-2{fill:none;}</style></defs><title>Pen_hover</title><g id="Layer_2" data-name="Layer 2"><g id="Layer_5" data-name="Layer 5"><path class="cls-1" d="M19.53,6.67a2.69,2.69,0,0,1-.88,1.85q-.67.71-9.32,9.23a.44.44,0,0,1-.17.12c-.67.19-2,.63-4,1.31H5a.51.51,0,0,1-.35-.11.47.47,0,0,1-.12-.5l1.23-4.1a.46.46,0,0,1,.12-.24L15.13,5A2.52,2.52,0,0,1,17,4.18a2.36,2.36,0,0,1,1.67.74A2.48,2.48,0,0,1,19.53,6.67ZM6.1,16.52c-.23.72-.39,1.23-.49,1.52.33-.1.87-.27,1.6-.53s1.19-.41,1.39-.46a2.9,2.9,0,0,0-.7-1.18,2.77,2.77,0,0,0-1.35-.82ZM12.66,8.8,9.42,12,7.19,14.26a4.4,4.4,0,0,1,1.38.94,3.58,3.58,0,0,1,.79,1.2l7.77-7.7a2.67,2.67,0,0,0-.77-1.41A2.91,2.91,0,0,0,15,6.47Zm5.9-2.1A1.54,1.54,0,0,0,18,5.62a1.5,1.5,0,0,0-1-.5,1.6,1.6,0,0,0-1.14.53l-.06.06A4.33,4.33,0,0,1,17,6.62a3.85,3.85,0,0,1,.85,1.31L18,7.85A1.73,1.73,0,0,0,18.56,6.7Z"/><rect class="cls-2" width="24" height="24"/></g></g></svg>