<svg xmlns="http://www.w3.org/2000/svg" viewBox="0 0 24 24"><defs><style>.cls-1{fill:#ccc;}.cls-2{fill:none;}</style></defs><title>Refresh</title><g id="Layer_2" data-name="Layer 2"><g id="Layer_5" data-name="Layer 5"><path class="cls-1" d="M19.25,10.5a7.19,7.19,0,0,1-2.91,5.81.5.5,0,0,1-.59-.81,6.3,6.3,0,0,0,1.84-2.21,6,6,0,0,0,.66-2.79,6,6,0,0,0-1.84-4.42A6.07,6.07,0,0,0,12,4.25a6,6,0,0,0-4.4,1.83A6,6,0,0,0,5.75,10.5a6,6,0,0,0,1.69,4.26,6,6,0,0,0,4.12,2l0,0-.87-1.38c-.15-.23-.13-.39.06-.5l.13-.09a.36.36,0,0,1,.53.12l1.47,2.32v0l.09.15a.3.3,0,0,1,.05.27.34.34,0,0,1-.17.2l-.16.1h0l-2.38,1.25a.38.38,0,0,1-.53-.16l0-.13c-.12-.18-.06-.35.19-.5l1.4-.71a7,7,0,0,1-4.68-2.33A7,7,0,0,1,4.75,10.5,7,7,0,0,1,6.88,5.37,7,7,0,0,1,12,3.25a7,7,0,0,1,5.13,2.12A7,7,0,0,1,19.25,10.5Z"/><rect class="cls-2" width="24" height="24"/></g></g></svg>