<svg xmlns="http://www.w3.org/2000/svg" viewBox="0 0 25 25"><defs><style>.cls-1{fill:none;}.cls-2{fill:#999;}</style></defs><title>Refresh_1</title><g id="Layer_2" data-name="Layer 2"><g id="Layer_5" data-name="Layer 5"><rect class="cls-1" width="25" height="25"/><path class="cls-2" d="M21.3,12.72l-.14-.16c-.13-.18-.31-.18-.53,0l-1.17,1.06A7,7,0,0,0,19,8.41a7,7,0,0,0-3.9-3.51,7,7,0,0,0-5.55.16,7,7,0,0,0-3.8,4,7,7,0,0,0,.17,5.55,7,7,0,0,0,4,3.8,7.06,7.06,0,0,0,2.7.47v-1a6.14,6.14,0,0,1-2.34-.4,6,6,0,0,1-3.48-3.3,6.06,6.06,0,0,1-.14-4.78A6,6,0,0,1,9.91,6a6,6,0,0,1,4.78-.14,6.06,6.06,0,0,1,3.39,3.09,6,6,0,0,1,.37,4.55v0l-1-1.3c-.16-.22-.33-.26-.49-.12l-.13.08a.35.35,0,0,0-.07.54l1.78,2.35a.29.29,0,0,0,.23.14.37.37,0,0,0,.25-.09l2.17-1.92C21.4,13,21.44,12.93,21.3,12.72Z"/></g></g></svg>
