<svg xmlns="http://www.w3.org/2000/svg" viewBox="0 0 24 24"><defs><style>.cls-1{fill:#999;}.cls-2{fill:none;}</style></defs><title>Rocket_hover</title><g id="Layer_2" data-name="Layer 2"><g id="Layer_5" data-name="Layer 5"><path class="cls-1" d="M19.52,6a11.3,11.3,0,0,1-.12,2,10.24,10.24,0,0,1-.51,2.26,5.66,5.66,0,0,1-1.58,2.31,5.16,5.16,0,0,1-.84.59c-.36.22-.82.46-1.38.75L14,14.5l-1,.58v2.44a.45.45,0,0,1-.18.35L11.07,19.6a.57.57,0,0,1-.33.11l-.14,0a.42.42,0,0,1-.3-.32l-.58-2.43L8.66,15.76l-1-1.14L4.85,14a.46.46,0,0,1-.35-.31.42.42,0,0,1,.09-.45l1.73-1.88a.5.5,0,0,1,.35-.14H9.28c.12-.2.3-.56.55-1.09a20,20,0,0,1,1.7-2.95,5.91,5.91,0,0,1,2.38-1.73,11.6,11.6,0,0,1,2.47-.6,9.87,9.87,0,0,1,1.92-.15,3.85,3.85,0,0,0,.76,0,.43.43,0,0,1,.44.44A6,6,0,0,0,19.52,6ZM8,16.84l.7.62a5.23,5.23,0,0,0-.32.64,3.48,3.48,0,0,1-.54.85,2.17,2.17,0,0,1-1,.49A8,8,0,0,1,5,19.63H4.5v-.47a5.74,5.74,0,0,1,.32-2.29A2.42,2.42,0,0,1,6,15.82a5.79,5.79,0,0,0,.76-.44l.56.73a5.63,5.63,0,0,1-.91.53,1.6,1.6,0,0,0-.72.61,4,4,0,0,0-.25,1.44,3.33,3.33,0,0,0,1.23-.18,1.53,1.53,0,0,0,.57-.33,3.72,3.72,0,0,0,.34-.55A4.12,4.12,0,0,1,8,16.84ZM18.57,5.59a12.49,12.49,0,0,0-4.31.71,5,5,0,0,0-2,1.46,19.91,19.91,0,0,0-1.56,2.78c-.35.69-.59,1.14-.73,1.35a.45.45,0,0,1-.41.24H6.88L5.82,13.24l2.17.5a.39.39,0,0,1,.23.14c.1.1.86.94,2.29,2.52a.67.67,0,0,1,.09.21L11,18.4l1-1.09V14.85a.41.41,0,0,1,.15-.35,14.9,14.9,0,0,1,1.35-.82c.17-.1.52-.28,1-.54s.95-.5,1.31-.71a3.4,3.4,0,0,0,.78-.54A4.65,4.65,0,0,0,18,10,12.34,12.34,0,0,0,18.57,5.59ZM16.72,9.33a1.88,1.88,0,0,1-3.22,1.33A1.86,1.86,0,0,1,13.5,8a1.86,1.86,0,0,1,2.66,0A1.81,1.81,0,0,1,16.72,9.33Zm-.94,0a1,1,0,1,0-1.9,0,1,1,0,0,0,1.9,0Z"/><rect class="cls-2" width="24" height="24"/></g></g></svg>