<svg xmlns="http://www.w3.org/2000/svg" viewBox="0 0 16.1 16.02"><defs><style>.cls-1{fill:#0071bc;}</style></defs><title>search</title><g id="Layer_2" data-name="Layer 2"><g id="Layer_5" data-name="Layer 5"><path class="cls-1" d="M15.92,15.84a.44.44,0,0,1-.7,0L10.34,11A6,6,0,0,1,6.25,12.5a6,6,0,0,1-4.42-1.83A6,6,0,0,1,0,6.25,6,6,0,0,1,1.83,1.83,6,6,0,0,1,6.25,0a6,6,0,0,1,4.42,1.83A6,6,0,0,1,12.5,6.25a6.13,6.13,0,0,1-1.44,4l4.85,4.91A.41.41,0,0,1,15.92,15.84ZM11.53,6.25A5,5,0,0,0,10,2.53,5.09,5.09,0,0,0,6.27,1,5.1,5.1,0,0,0,2.55,2.53,5,5,0,0,0,1,6.25,5,5,0,0,0,2.55,10,5.1,5.1,0,0,0,6.27,11.5,5.09,5.09,0,0,0,10,10,5,5,0,0,0,11.53,6.25Z"/></g></g></svg>