<?xml version="1.0" encoding="iso-8859-1"?>
<!-- Generator: Adobe Illustrator 19.1.1, SVG Export Plug-In . SVG Version: 6.00 Build 0)  -->
<svg version="1.1" xmlns="http://www.w3.org/2000/svg" xmlns:xlink="http://www.w3.org/1999/xlink" x="0px" y="0px"
	 viewBox="0 0 150 87" style="enable-background:new 0 0 150 87;" xml:space="preserve">
<g id="Layer_1">
	<g>
		<g>
			<g>
				<path style="fill:#65BAF7;" d="M8.526,80.767H2.587V48.714h5.938V80.767z"/>
				<path style="fill:#65BAF7;" d="M45.436,70.134l0.049,0.132c0.065,3.243-1.104,5.881-3.506,7.914
					c-2.404,2.033-5.657,3.049-9.762,3.049c-4.154,0-7.53-1.258-10.128-3.776c-2.599-2.517-3.898-5.735-3.898-9.653v-6.098
					c0-3.903,1.283-7.122,3.849-9.653s5.901-3.798,10.006-3.798c4.203,0,7.514,0.995,9.933,2.983
					c2.419,1.989,3.595,4.664,3.531,8.025l-0.049,0.132h-5.742c0-2.157-0.647-3.838-1.942-5.041
					c-1.295-1.203-3.205-1.805-5.73-1.805c-2.427,0-4.354,0.865-5.779,2.595c-1.426,1.73-2.138,3.9-2.138,6.51v6.136
					c0,2.64,0.729,4.825,2.187,6.554c1.458,1.73,3.425,2.595,5.901,2.595c2.46,0,4.325-0.592,5.596-1.777
					c1.271-1.185,1.906-2.86,1.906-5.025H45.436z"/>
				<path style="fill:#65BAF7;" d="M74.184,72.509c0-1.33-0.55-2.418-1.649-3.265c-1.1-0.848-3.042-1.608-5.828-2.28
					c-3.975-0.939-7.034-2.183-9.176-3.732c-2.142-1.548-3.213-3.577-3.213-6.087c0-2.583,1.185-4.711,3.555-6.385
					c2.371-1.673,5.429-2.51,9.176-2.51c3.91,0,7.05,0.951,9.42,2.851c2.371,1.9,3.515,4.179,3.433,6.835l-0.049,0.132h-5.693
					c0-1.643-0.619-2.975-1.857-3.995s-3.006-1.53-5.303-1.53c-2.167,0-3.832,0.425-4.997,1.274
					c-1.165,0.85-1.747,1.948-1.747,3.295c0,1.216,0.631,2.226,1.894,3.031c1.262,0.805,3.352,1.566,6.268,2.284
					c3.829,0.924,6.736,2.201,8.724,3.83c1.988,1.629,2.982,3.706,2.982,6.23c0,2.671-1.185,4.796-3.556,6.373
					c-2.37,1.578-5.485,2.367-9.346,2.367c-3.714,0-6.973-0.892-9.774-2.675c-2.802-1.783-4.162-4.215-4.08-7.298l0.048-0.132h5.718
					c0,1.952,0.749,3.409,2.249,4.37c1.499,0.961,3.445,1.442,5.84,1.442c2.199,0,3.909-0.398,5.131-1.194
					C73.572,74.946,74.184,73.868,74.184,72.509z"/>
			</g>
		</g>
		<g>
			<path style="fill:#176080;" d="M21.858,22.498H7.835v10.126h16.269v4.293H2.486V4.865H23.95v4.293H7.835v9.048h14.023V22.498z"/>
			<path style="fill:#176080;" d="M39.301,28.53l0.572,2.224h0.132l0.55-2.179l7.661-23.709h5.702L42.471,36.918h-5.085L25.96,4.865
				h5.702L39.301,28.53z"/>
			<path style="fill:#176080;" d="M71.164,29.433H58.616l-2.553,7.485h-5.416L62.424,4.865h5.064l11.645,32.053h-5.438
				L71.164,29.433z M60.157,24.964h9.488L65,11.271h-0.132L60.157,24.964z"/>
		</g>
		<g>
			<g>
				<path style="fill:#65BAF7;" d="M106.322,7.43c-1.491,1.491-2.311,3.473-2.311,5.579c-0.002,2.107,0.818,4.088,2.309,5.579
					c1.489,1.489,3.469,2.309,5.573,2.309c2.108,0,4.09-0.821,5.581-2.311c1.49-1.49,2.311-3.469,2.31-5.575
					c-0.001-4.351-3.54-7.89-7.89-7.89C109.789,5.121,107.81,5.941,106.322,7.43z"/>
			</g>
		</g>
		<g>
			<path style="fill:#176080;" d="M106.103,37.463c-1.549,1.549-2.402,3.609-2.402,5.797c-0.003,2.19,0.85,4.248,2.4,5.797
				c1.547,1.547,3.605,2.4,5.791,2.399c2.191,0,4.251-0.853,5.799-2.402c1.548-1.548,2.402-3.605,2.401-5.793
				c-0.001-4.521-3.679-8.199-8.199-8.199C109.706,35.063,107.65,35.916,106.103,37.463z"/>
		</g>
		<g>
			<g>
				<path style="fill:#65BAF7;" d="M105.762,67.468c-1.49,1.49-2.311,3.473-2.311,5.581c-0.001,2.106,0.819,4.087,2.309,5.577
					c1.49,1.49,3.468,2.31,5.572,2.309c2.11,0,4.093-0.821,5.583-2.312c1.489-1.489,2.31-3.469,2.309-5.573
					c0.001-2.109-0.82-4.091-2.31-5.58c-1.49-1.49-3.471-2.311-5.58-2.311C109.231,65.16,107.251,65.98,105.762,67.468z"/>
			</g>
		</g>
		<path style="fill:#65BAF7;" d="M135.976,37.582c-1.491,1.491-2.311,3.473-2.311,5.579c0.001,4.349,3.537,7.889,7.883,7.889
			c2.108,0,4.091-0.82,5.582-2.311c1.489-1.489,2.31-3.471,2.31-5.577c0-4.348-3.54-7.888-7.891-7.891
			C139.445,35.273,137.464,36.093,135.976,37.582z"/>
		<path style="fill:#65BAF7;" d="M96.775,20.215c0.442,0.002,0.909,0.049,1.445,0.147c0.148,0.029,0.302,0.066,0.454,0.104
			c0.308,0.077,0.612,0.17,0.904,0.277l0.052,0.02c0.146,0.056,0.287,0.109,0.425,0.172c0.292,0.135,0.586,0.296,0.904,0.495
			c0,0,0.213,0.117,0.247,0.137l1.316,1.133c0.092,0.097,0.175,0.203,0.258,0.309c0.059,0.073,0.118,0.148,0.167,0.205
			c0.056,0.07,0.115,0.139,0.176,0.209c0.059,0.067,0.121,0.135,0.172,0.21l0.049,0.074l0.061,0.064
			c2.068,2.193,5.042,3.475,8.16,3.521c3.129,0.044,6.149-1.154,8.286-3.292c0.091-0.092,0.181-0.185,0.27-0.281l0.094-0.117
			c0.016-0.022,0.035-0.041,0.053-0.06c0.046-0.052,0.094-0.105,0.151-0.177c0.165-0.215,0.334-0.438,0.508-0.627l1.325-1.154
			c0.036-0.023,0.074-0.041,0.112-0.064c0.056-0.03,0.114-0.061,0.182-0.102c0.336-0.207,0.613-0.359,0.882-0.481
			c0.152-0.069,0.306-0.126,0.468-0.188c0.288-0.107,0.598-0.204,0.895-0.28l0.158-0.037c0.097-0.024,0.193-0.048,0.3-0.068
			c0.554-0.101,1.008-0.15,1.429-0.151c4.35,0.003,7.891,3.544,7.891,7.891c-0.001,2.106-0.821,4.085-2.31,5.575
			c-1.491,1.491-3.473,2.312-5.582,2.312c-0.429,0-0.882-0.048-1.443-0.152c-0.122-0.02-0.236-0.051-0.352-0.081l-0.064-0.016
			c-0.346-0.09-0.648-0.183-0.932-0.289c-0.157-0.059-0.308-0.113-0.46-0.186c-0.258-0.117-0.532-0.265-0.891-0.483
			c-0.055-0.035-0.248-0.141-0.284-0.163l-1.294-1.121c-0.095-0.102-0.179-0.212-0.266-0.322l-0.158-0.199
			c-0.055-0.067-0.113-0.132-0.17-0.196c-0.009-0.01-0.019-0.021-0.027-0.03l-0.006-0.052l-0.252-0.268
			c-2.068-2.19-5.045-3.473-8.162-3.516c-3.127-0.046-6.146,1.153-8.283,3.288c-0.092,0.092-0.183,0.189-0.273,0.283l-0.047,0.058
			l-0.035,0.045c-0.018,0.022-0.039,0.042-0.058,0.065c-0.051,0.053-0.098,0.11-0.154,0.178l-0.081,0.105
			c-0.146,0.189-0.285,0.372-0.427,0.527l-1.354,1.169c-0.031,0.019-0.284,0.158-0.284,0.158c-0.292,0.187-0.584,0.346-0.867,0.477
			c-0.149,0.067-0.304,0.125-0.463,0.184c-0.299,0.111-0.6,0.204-0.927,0.286c-0.147,0.04-0.419,0.074-0.558,0.101
			c-0.564,0.103-1.455,0.148-1.455,0.148v-0.006V20.22C96.651,20.22,96.739,20.215,96.775,20.215z"/>
		<path style="fill:#65BAF7;" d="M98,50.48c0.143,0.028,0.403,0.065,0.558,0.104c0.323,0.081,0.682,0.175,0.974,0.284
			c0.163,0.061,0.351,0.118,0.497,0.184c0.275,0.127,0.582,0.288,0.916,0.498l0.147,0.078c0.043,0.023,0.089,0.045,0.126,0.069
			l1.307,1.127c0.091,0.094,0.171,0.198,0.254,0.301c0.058,0.074,0.117,0.148,0.164,0.205c0.059,0.073,0.118,0.142,0.179,0.212
			c0.059,0.068,0.121,0.135,0.17,0.21l0.05,0.072l0.061,0.064c2.07,2.191,5.047,3.475,8.166,3.519
			c3.127,0.044,6.146-1.155,8.282-3.291c0.092-0.092,0.182-0.186,0.271-0.282l0.05-0.058l0.036-0.047
			c0.017-0.024,0.038-0.045,0.058-0.066c0.048-0.054,0.098-0.11,0.148-0.174l0.066-0.085c0.153-0.198,0.3-0.386,0.449-0.551
			l1.323-1.15c0.037-0.022,0.075-0.042,0.112-0.063c0.06-0.034,0.122-0.068,0.187-0.108c0.309-0.193,0.596-0.349,0.883-0.48
			c0.147-0.067,0.299-0.125,0.464-0.186c0.277-0.103,0.585-0.198,0.912-0.281l0.065-0.017c0.121-0.031,0.238-0.062,0.384-0.087
			c0.527-0.101,0.991-0.149,1.422-0.149c4.348,0,7.89,3.538,7.891,7.886c-0.001,2.107-0.822,4.088-2.312,5.578
			c-1.492,1.491-3.474,2.312-5.582,2.312c-0.424,0.001-0.878-0.047-1.419-0.146c-0.135-0.026-0.263-0.059-0.391-0.091l-0.051-0.013
			c-0.329-0.084-0.639-0.18-0.93-0.29c-0.159-0.059-0.313-0.115-0.459-0.181c-0.262-0.12-0.542-0.274-0.913-0.503
			c0,0-0.201-0.11-0.235-0.13l-0.023-0.023l-0.035-0.019l-1.255-1.088c-0.101-0.106-0.192-0.223-0.281-0.338l-0.153-0.191
			c-0.053-0.065-0.105-0.125-0.158-0.184c-0.065-0.074-0.131-0.143-0.186-0.224l-0.048-0.073l-0.06-0.063
			c-2.068-2.191-5.043-3.474-8.161-3.52c-3.129-0.046-6.147,1.153-8.283,3.289c-0.092,0.092-0.183,0.186-0.274,0.283l-0.049,0.053
			l-0.045,0.064c-0.016,0.021-0.034,0.039-0.051,0.058c-0.048,0.053-0.096,0.106-0.154,0.178l-0.034,0.044
			c-0.16,0.211-0.315,0.411-0.472,0.582l-1.353,1.172c-0.032,0.02-0.066,0.036-0.099,0.055l-0.182,0.102
			c-0.289,0.183-0.581,0.343-0.861,0.473c-0.156,0.072-0.312,0.131-0.469,0.189c-0.307,0.113-0.608,0.206-0.915,0.284
			c-0.152,0.038-0.536,0.075-0.677,0.103c-0.42,0.077-1.351,0.114-1.351,0.131V50.349C96.651,50.365,97.57,50.401,98,50.48z"/>
		<g>
			<rect x="94.08" y="6.5" style="fill:#176080;" width="3" height="75"/>
		</g>
		<path style="fill:#176080;" d="M102.475,52.638c1.49,1.491,2.278,3.471,2.278,5.577c0,2.108-0.773,4.09-2.264,5.582
			c-1.463,1.463-3.409,2.275-5.409,2.302V50.335C99.08,50.362,101.014,51.175,102.475,52.638z"/>
		<path style="fill:#176080;" d="M105.058,39.046c0.09-0.09,0.187-0.182,0.274-0.276l0.053-0.049l0.047-0.068l0.048-0.054
			c0.054-0.06,0.107-0.122,0.144-0.169l0.062-0.08c0.156-0.203,0.305-0.391,0.456-0.556l1.326-1.157
			c0.036-0.022,0.073-0.04,0.11-0.061c0.059-0.033,0.116-0.066,0.181-0.103c0.316-0.195,0.607-0.352,0.881-0.479
			c0.156-0.07,0.312-0.129,0.463-0.187c0.28-0.104,0.594-0.202,0.919-0.289c0.146-0.035,0.287-0.071,0.448-0.099
			c0.53-0.103,0.981-0.148,1.424-0.147c2.107-0.001,4.089,0.819,5.579,2.308c1.491,1.49,2.312,3.675,2.312,5.782
			c-0.002,2.108-0.823,4.021-2.313,5.787h-0.001c-1.49,0.883-3.471,2.104-5.574,2.102c-0.441-0.001-0.9-0.151-1.408-0.245
			c-0.158-0.032-0.32-0.121-0.457-0.153c-0.326-0.087-0.634-0.211-0.943-0.326c-0.152-0.053-0.293-0.122-0.449-0.195
			c-0.281-0.129-0.577-0.295-0.895-0.492c-0.054-0.032-0.232-0.133-0.263-0.152l-1.284-1.106l-0.03-0.031
			c-0.086-0.085-0.157-0.18-0.233-0.275c-0.066-0.085-0.134-0.17-0.174-0.215c-0.062-0.079-0.127-0.157-0.194-0.233
			c-0.055-0.066-0.112-0.128-0.161-0.2l-0.051-0.075l-0.062,0.199c-2.068-2.19-5.283-3.252-8.403-3.252c-0.006,0,0.19,0,0.19,0
			v-2.169C99.08,42.288,102.994,41.109,105.058,39.046z"/>
		<path style="fill:#176080;" d="M102.396,22.52c1.49,1.491,2.317,3.473,2.318,5.581c-0.001,2.106-0.834,4.086-2.324,5.577
			c-1.423,1.423-3.31,2.226-5.31,2.295V20.224C99.08,20.291,100.972,21.095,102.396,22.52z"/>
	</g>
</g>
<g id="Layer_2">
</g>
</svg>
